<?xml version="1.0" standalone="no"?>
<!DOCTYPE svg PUBLIC "-//W3C//DTD SVG 20010904//EN"
 "http://www.w3.org/TR/2001/REC-SVG-20010904/DTD/svg10.dtd">
<svg version="1.0" xmlns="http://www.w3.org/2000/svg"
 width="200.000000pt" height="200.000000pt" viewBox="0 0 200.000000 200.000000"
 preserveAspectRatio="xMidYMid meet">
<metadata>
Created by potrace 1.14, written by Peter Selinger 2001-2017
</metadata>
<g transform="translate(0.000000,200.000000) scale(0.100000,-0.100000)"
fill="#000000" stroke="none">
<path d="M778 1588 c-3 -13 -29 -111 -58 -218 -28 -107 -69 -260 -90 -340 -59
-224 -78 -295 -116 -433 -20 -71 -34 -130 -32 -132 4 -4 48 36 258 235 85 81
169 159 185 175 29 26 246 231 410 386 80 77 106 101 229 216 36 35 66 64 66
66 0 2 -21 5 -47 6 -27 1 -64 4 -83 6 -19 2 -80 6 -135 10 -55 4 -112 8 -128
10 -15 2 -71 6 -125 10 -53 3 -113 8 -132 10 -19 2 -72 7 -116 10 -79 6 -82 6
-86 -17z"/>
</g>
</svg>
