<svg width="800" height="523" xmlns="http://www.w3.org/2000/svg">

 <g>
  <title>Layer 1</title>
  <rect stroke-width="5" id="svg_2" height="85" width="700" y="49" x="50" stroke="#000" fill="#ffffff"/>
  <text transform="matrix(1 0 0 1 0 0)" style="cursor: move;" font-style="normal" font-weight="normal" xml:space="preserve" text-anchor="start" font-family="sans-serif" font-size="24" id="svg_3" y="99" x="342.64844" stroke-width="0" stroke="#000" fill="#000000">App (Host)</text>
  <rect stroke="#000" id="svg_5" height="83" width="190" y="178" x="51" stroke-width="5" fill="none"/>
  <rect stroke="#000" id="svg_7" height="83" width="238" y="178" x="277.99999" stroke-width="5" fill="none"/>
  <rect stroke="#000" id="svg_8" height="83" width="202" y="176" x="546.5" stroke-width="5" fill="none"/>
  <rect stroke="#000" id="svg_9" height="83" width="214.00001" y="401.36673" x="51" stroke-width="5" fill="none"/>
  <rect stroke="#000" id="svg_10" height="83" width="241.00001" y="400.36673" x="301.99999" stroke-width="5" fill="none"/>
  <rect stroke="#000" id="svg_11" height="83" width="175.00001" y="399.36673" x="573.49999" stroke-width="5" fill="none"/>
  <line id="svg_13" y2="400" x2="143" y1="260" x1="142" stroke-width="5" stroke="#000" fill="none"/>
  <line id="svg_14" y2="259" x2="143" y1="402" x1="416" stroke-width="5" stroke="#000" fill="none"/>
  <line id="svg_16" y2="136" x2="401" y1="176" x1="147" stroke-width="5" stroke="#000" fill="none"/>
  <line id="svg_17" y2="262" x2="647" y1="399" x1="643" stroke-width="5" stroke="#000" fill="none"/>
  <line id="svg_18" y2="438" x2="543" y1="437" x1="574" stroke-width="5" stroke="#000" fill="none"/>
  <line id="svg_19" y2="263" x2="396" y1="436" x1="264" stroke-width="5" stroke="#000" fill="none"/>
  <line id="svg_20" y2="134" x2="472" y1="173" x1="651" stroke-width="5" stroke="#000" fill="none"/>
  <line id="svg_21" y2="135" x2="427" y1="400" x1="461" stroke-width="5" stroke="#000" fill="none"/>
  <text transform="rotate(-89 117.671 333.858) matrix(0.69188 0 0 0.794833 38.8072 41.987)" stroke="#000" xml:space="preserve" text-anchor="start" font-family="sans-serif" font-size="24" id="svg_22" y="375.26003" x="33.32798" stroke-width="0" fill="#000000">communication</text>
  <text transform="rotate(94 663.673 329.854) matrix(0.69188 0 0 0.794833 38.8072 41.987)" stroke="#000" xml:space="preserve" text-anchor="start" font-family="sans-serif" font-size="24" id="svg_23" y="370.22753" x="822.48212" stroke-width="0" fill="#000000">communication</text>
  <text transform="rotate(79 470.675 324.859) matrix(0.69188 0 0 0.794833 38.8072 41.987)" stroke="#000" xml:space="preserve" text-anchor="start" font-family="sans-serif" font-size="24" id="svg_24" y="363.9369" x="543.53203" stroke-width="0" fill="#000000">communication</text>
  <text transform="rotate(29 273.679 304.859) matrix(0.69188 0 0 0.794833 38.8072 41.987)" stroke="#000" xml:space="preserve" text-anchor="start" font-family="sans-serif" font-size="24" id="svg_25" y="338.77438" x="258.80059" stroke-width="0" fill="#000000">communication</text>
  <text transform="rotate(-7 230.68 140.852) matrix(0.69188 0 0 0.794833 38.8072 41.987)" stroke="#000" xml:space="preserve" text-anchor="start" font-family="sans-serif" font-size="24" id="svg_26" y="132.44171" x="196.65109" stroke-width="0" fill="#000000">communication</text>
  <text transform="rotate(14 583.674 141.857) matrix(0.69188 0 0 0.794833 38.8072 41.987)" stroke="#000" xml:space="preserve" text-anchor="start" font-family="sans-serif" font-size="24" id="svg_27" y="133.69984" x="706.85514" stroke-width="0" fill="#000000">communication</text>
  <text transform="rotate(132 378.672 315.857) matrix(0.69188 0 0 0.794833 38.8072 41.987)" stroke="#000" xml:space="preserve" text-anchor="start" font-family="sans-serif" font-size="24" id="svg_28" y="352.61376" x="410.561" stroke-width="0" fill="#000000">communication</text>
  <text xml:space="preserve" text-anchor="start" font-family="sans-serif" font-size="24" id="svg_29" y="224" x="102" stroke-width="0" stroke="#000" fill="#000000">Module</text>
  <text xml:space="preserve" text-anchor="start" font-family="sans-serif" font-size="24" id="svg_30" y="225" x="356" stroke-width="0" stroke="#000" fill="#000000">Module</text>
  <text xml:space="preserve" text-anchor="start" font-family="sans-serif" font-size="24" id="svg_31" y="226" x="606" stroke-width="0" stroke="#000" fill="#000000">Module</text>
  <text xml:space="preserve" text-anchor="start" font-family="sans-serif" font-size="24" id="svg_32" y="447" x="620" stroke-width="0" stroke="#000" fill="#000000">Module</text>
  <text xml:space="preserve" text-anchor="start" font-family="sans-serif" font-size="24" id="svg_33" y="449" x="388" stroke-width="0" stroke="#000" fill="#000000">Module</text>
  <text xml:space="preserve" text-anchor="start" font-family="sans-serif" font-size="24" id="svg_34" y="452" x="107" stroke-width="0" stroke="#000" fill="#000000">Module</text>
 </g>
</svg>